<?xml version="1.0" encoding="utf-8"?>
<!-- Generator: Adobe Illustrator 18.0.0, SVG Export Plug-In . SVG Version: 6.00 Build 0)  -->
<!DOCTYPE svg PUBLIC "-//W3C//DTD SVG 1.1//EN" "http://www.w3.org/Graphics/SVG/1.1/DTD/svg11.dtd">
<svg version="1.1" id="Capa_1" xmlns="http://www.w3.org/2000/svg" xmlns:xlink="http://www.w3.org/1999/xlink" x="0px" y="0px"
	 viewBox="0 0 841.9 595.3" enable-background="new 0 0 841.9 595.3" xml:space="preserve">
<g opacity="0.8">
	<path fill="#FFFFFF" d="M420.9,0C256.6,0,123.3,133.3,123.3,297.6s133.3,297.7,297.6,297.7S718.6,462,718.6,297.6S585.3,0,420.9,0z
		 M482.9,461.3c-15.3,6-27.5,10.6-36.7,13.8c-9.1,3.2-19.7,4.8-31.8,4.8c-18.5,0-33-4.5-43.3-13.6c-10.3-9-15.4-20.5-15.4-34.4
		c0-5.4,0.4-11,1.1-16.6c0.8-5.6,2-12,3.7-19.1l19.2-67.7c1.7-6.5,3.1-12.7,4.3-18.4c1.2-5.8,1.7-11.1,1.7-15.9
		c0-8.6-1.8-14.7-5.3-18.1c-3.6-3.4-10.4-5.1-20.5-5.1c-4.9,0-10,0.7-15.2,2.3c-5.2,1.6-9.7,3-13.3,4.4l5.1-20.9
		c12.5-5.1,24.6-9.5,36-13.1c11.5-3.7,22.3-5.5,32.5-5.5c18.4,0,32.6,4.5,42.6,13.4c10,8.9,15,20.5,15,34.7c0,2.9-0.4,8.1-1,15.5
		c-0.7,7.4-2,14.2-3.8,20.4l-19.1,67.5c-1.6,5.4-2.9,11.6-4.2,18.5c-1.2,6.9-1.8,12.2-1.8,15.8c0,9,2,15.1,6,18.3
		c4,3.3,11,4.9,20.8,4.9c4.7,0,9.9-0.8,15.8-2.4c5.8-1.6,10.1-3,12.7-4.3L482.9,461.3z M479.5,187.2c-8.9,8.3-19.6,12.4-32.1,12.4
		c-12.5,0-23.3-4.1-32.3-12.4c-8.9-8.3-13.4-18.3-13.4-30.1c0-11.7,4.5-21.8,13.4-30.1c9-8.4,19.8-12.5,32.3-12.5
		c12.5,0,23.3,4.2,32.1,12.5c8.9,8.3,13.4,18.4,13.4,30.1C492.9,168.9,488.4,178.9,479.5,187.2z"/>
</g>
</svg>
