<?xml version="1.0" encoding="iso-8859-1"?>
<!-- Generator: Adobe Illustrator 18.0.0, SVG Export Plug-In . SVG Version: 6.00 Build 0)  -->
<!DOCTYPE svg PUBLIC "-//W3C//DTD SVG 1.1//EN" "http://www.w3.org/Graphics/SVG/1.1/DTD/svg11.dtd">
<svg version="1.1" id="&#x5716;&#x5C64;_1" xmlns="http://www.w3.org/2000/svg" xmlns:xlink="http://www.w3.org/1999/xlink" x="0px"
	 y="0px" viewBox="0 0 32.718 32.718" style="enable-background:new 0 0 32.718 32.718;" xml:space="preserve">
<path style="fill:#B3B3B3;" d="M32.718,30.395l-6.993-6.993c2.084-2.619,3.137-5.799,3.136-8.972
	c0.002-3.688-1.412-7.39-4.226-10.204C21.821,1.412,18.118-0.002,14.431,0C10.743-0.002,7.04,1.412,4.227,4.227
	C1.412,7.039-0.002,10.743,0,14.431c-0.002,3.688,1.412,7.391,4.227,10.204c2.813,2.815,6.516,4.229,10.204,4.227
	c3.172,0.002,6.352-1.051,8.972-3.136l6.992,6.993L32.718,30.395z M6.55,22.312c-2.18-2.181-3.263-5.024-3.265-7.881
	C3.287,11.573,4.37,8.73,6.55,6.55c2.181-2.18,5.023-3.263,7.881-3.265c2.858,0.002,5.7,1.085,7.882,3.265
	c2.179,2.18,3.262,5.023,3.264,7.881c-0.002,2.857-1.086,5.7-3.265,7.881l0,0c-2.18,2.18-5.023,3.263-7.881,3.265
	C11.573,25.574,8.73,24.491,6.55,22.312z"/>
</svg>
